<?xml version="1.0" standalone="no"?>
<!DOCTYPE svg PUBLIC "-//W3C//DTD SVG 20010904//EN"
 "http://www.w3.org/TR/2001/REC-SVG-20010904/DTD/svg10.dtd">
<svg version="1.0" xmlns="http://www.w3.org/2000/svg"
 width="300.000000pt" height="300.000000pt" viewBox="0 0 300.000000 300.000000"
 preserveAspectRatio="xMidYMid meet">
<metadata>
Created by potrace 1.11, written by Peter Selinger 2001-2013
</metadata>
<g transform="translate(0.000000,300.000000) scale(0.100000,-0.100000)"
fill="#000000" stroke="none">
<path d="M333 2593 l-173 -3 0 -50 c0 -43 3 -50 22 -54 13 -3 47 -10 76 -16
65 -12 99 -29 134 -67 59 -62 58 -45 58 -730 -1 -889 -9 -959 -124 -1060 -45
-40 -91 -61 -175 -83 l-43 -11 7 -47 c4 -26 8 -48 10 -50 2 -2 191 0 420 4
l416 7 -3 51 -3 51 -54 8 c-100 14 -162 37 -206 78 -66 61 -82 109 -94 287
-13 183 -15 1218 -2 1226 5 3 21 -29 36 -72 15 -42 101 -268 191 -502 152
-398 196 -510 369 -927 l68 -163 37 0 38 0 165 413 c91 226 243 608 338 847
94 239 176 441 182 448 6 7 13 9 18 5 9 -10 -7 -962 -21 -1272 -10 -218 -11
-225 -36 -258 -33 -43 -130 -92 -208 -104 -113 -18 -106 -14 -106 -68 0 -46 1
-49 31 -55 17 -3 258 -6 535 -6 l503 0 7 45 c3 25 4 49 0 52 -3 3 -40 12 -83
19 -111 20 -161 48 -201 114 l-32 54 -1 156 c0 85 -2 279 -4 430 -4 365 10
953 25 1024 13 63 51 116 97 135 16 6 62 17 103 24 l75 12 -1 47 c0 26 -2 50
-5 52 -9 9 -681 8 -689 -1 -11 -12 -262 -665 -477 -1243 -58 -155 -93 -235
-102 -235 -17 0 -96 196 -535 1323 l-68 172 -171 -2 c-95 -1 -250 -4 -344 -5z
m2052 -553 c3 -5 1 -10 -4 -10 -6 0 -11 5 -11 10 0 6 2 10 4 10 3 0 8 -4 11
-10z"/>
</g>
</svg>
